<svg xmlns="http://www.w3.org/2000/svg" viewBox="0 0 128 128" fill="none">
  <defs>
    <linearGradient id="bg" x1="18" y1="14" x2="108" y2="114" gradientUnits="userSpaceOnUse">
      <stop stop-color="#0C2A47" />
      <stop offset="0.44" stop-color="#1D5B8D" />
      <stop offset="1" stop-color="#62D0BD" />
    </linearGradient>
    <linearGradient id="mark" x1="36" y1="30" x2="36" y2="98" gradientUnits="userSpaceOnUse">
      <stop stop-color="#F7FBFF" />
      <stop offset="1" stop-color="#D5EAF5" />
    </linearGradient>
    <linearGradient id="box" x1="82" y1="78" x2="96" y2="94" gradientUnits="userSpaceOnUse">
      <stop stop-color="#8DE8D2" />
      <stop offset="1" stop-color="#D1FBF0" />
    </linearGradient>
  </defs>
  <rect x="8" y="8" width="112" height="112" rx="30" fill="url(#bg)" />
  <rect x="8" y="8" width="112" height="112" rx="30" stroke="#FFFFFF" stroke-opacity="0.26" stroke-width="4" />
  <ellipse cx="44" cy="34" rx="28" ry="16" fill="#FFFFFF" fill-opacity="0.14" />
  <rect x="30" y="30" width="18" height="68" rx="9" fill="url(#mark)" />
  <rect x="30" y="30" width="50" height="18" rx="9" fill="url(#mark)" />
  <rect x="30" y="56" width="38" height="15" rx="7.5" fill="url(#mark)" />
  <rect x="30" y="82" width="50" height="18" rx="9" fill="url(#mark)" />
  <rect x="76" y="74" width="24" height="24" rx="8" fill="url(#box)" />
  <path
    d="M83 82.5 88 79l5 3.5M83 82.5V91h10v-8.5M88 79v12"
    stroke="#0F3954"
    stroke-linecap="round"
    stroke-linejoin="round"
    stroke-width="3"
  />
</svg>
